<svg xmlns="http://www.w3.org/2000/svg" viewBox="0 0 24 24" fill="none" stroke="currentColor" stroke-width="2" stroke-linecap="round" stroke-linejoin="round">
  <!-- Flask/beaker shape representing formulations -->
  <path d="M9 2v6.5L6 14v6a2 2 0 002 2h8a2 2 0 002-2v-6l-3-5.5V2"/>
  <path d="M9 2h6"/>
  
  <!-- Liquid level in flask -->
  <path d="M7 16h10" stroke-width="1" opacity="0.7"/>
  <path d="M8 18h8" stroke-width="1" opacity="0.5"/>
  
  <!-- Crowe Logic "C" element -->
  <circle cx="12" cy="14" r="2" fill="none" stroke-width="1.5"/>
  <path d="M10.5 13.5c0-.8.7-1.5 1.5-1.5s1.5.7 1.5 1.5" fill="none" stroke-width="1"/>
  
  <!-- Molecular structure dots -->
  <circle cx="8" cy="12" r="0.5" fill="currentColor"/>
  <circle cx="16" cy="12" r="0.5" fill="currentColor"/>
  <circle cx="12" cy="10" r="0.5" fill="currentColor"/>
  
  <!-- Connection lines -->
  <line x1="8.5" y1="12" x2="10" y2="13" stroke-width="0.5" opacity="0.6"/>
  <line x1="15.5" y1="12" x2="14" y2="13" stroke-width="0.5" opacity="0.6"/>
  <line x1="12" y1="10.5" x2="12" y2="12" stroke-width="0.5" opacity="0.6"/>
</svg>
