<svg xmlns="http://www.w3.org/2000/svg" viewBox="0 0 24 24" fill="none" stroke="currentColor" stroke-width="2" stroke-linecap="round" stroke-linejoin="round">
  <!-- DNA double helix representing cultures -->
  <path d="M4 2c0 0 4 4 8 4s8-4 8-4"/>
  <path d="M4 6c0 0 4 4 8 4s8-4 8-4"/>
  <path d="M4 10c0 0 4 4 8 4s8-4 8-4"/>
  <path d="M4 14c0 0 4 4 8 4s8-4 8-4"/>
  <path d="M4 18c0 0 4 4 8 4s8-4 8-4"/>
  <path d="M4 22c0 0 4-4 8-4s8 4 8 4"/>
  
  <!-- Connecting bonds -->
  <line x1="8" y1="4" x2="16" y2="20" stroke-width="0.5" opacity="0.4"/>
  <line x1="16" y1="4" x2="8" y2="20" stroke-width="0.5" opacity="0.4"/>
  
  <!-- Base pairs -->
  <circle cx="8" cy="8" r="0.5" fill="currentColor"/>
  <circle cx="16" cy="8" r="0.5" fill="currentColor"/>
  <circle cx="12" cy="12" r="0.5" fill="currentColor"/>
  <circle cx="8" cy="16" r="0.5" fill="currentColor"/>
  <circle cx="16" cy="16" r="0.5" fill="currentColor"/>
</svg>
