<svg xmlns="http://www.w3.org/2000/svg" viewBox="0 0 24 24" fill="none" stroke="currentColor" stroke-width="2" stroke-linecap="round" stroke-linejoin="round">
  <!-- Grow kit container -->
  <rect x="3" y="14" width="18" height="6" rx="1" ry="1"/>
  <rect x="4" y="15" width="16" height="4" rx="0.5" ry="0.5" fill="none" stroke-width="1" opacity="0.5"/>
  
  <!-- Growing mushrooms at different stages -->
  <path d="M7 14c0-1 0.5-2 1.5-3s2-1 2.5-1c0.5 0 1.5 0 2.5 1s1.5 2 1.5 3"/>
  <path d="M6 14c0-2 1-3 2-4s2-1 2-1"/>
  <path d="M16 14c0-2 1-3 2-4s2-1 2-1"/>
  
  <!-- Mushroom caps -->
  <ellipse cx="8" cy="9" rx="1.5" ry="0.8"/>
  <ellipse cx="12" cy="7" rx="2" ry="1"/>
  <ellipse cx="16" cy="9" rx="1.5" ry="0.8"/>
  
  <!-- Stems -->
  <line x1="8" y1="9.8" x2="8" y2="14" stroke-width="1.5"/>
  <line x1="12" y1="8" x2="12" y2="14" stroke-width="2"/>
  <line x1="16" y1="9.8" x2="16" y2="14" stroke-width="1.5"/>
  
  <!-- Substrate texture -->
  <circle cx="6" cy="17" r="0.3" fill="currentColor" opacity="0.4"/>
  <circle cx="9" cy="16.5" r="0.3" fill="currentColor" opacity="0.4"/>
  <circle cx="15" cy="17.2" r="0.3" fill="currentColor" opacity="0.4"/>
  <circle cx="18" cy="16.8" r="0.3" fill="currentColor" opacity="0.4"/>
</svg>
